# Blender v2.83.13 OBJ File: 'roof.blend'
# www.blender.org
mtllib roof.mtl
o Cylinder.001
v 0.000000 -0.010000 -2.146080
v 0.000000 0.010000 -2.146080
v 0.418679 -0.010000 -2.104843
v 0.418679 0.010000 -2.104843
v 0.821269 -0.010000 -1.982719
v 0.821269 0.010000 -1.982719
v 1.192298 -0.010000 -1.784400
v 1.192298 0.010000 -1.784400
v 1.517508 -0.010000 -1.517508
v 1.517508 0.010000 -1.517508
v 1.784400 -0.010000 -1.192298
v 1.784400 0.010000 -1.192298
v 1.982719 -0.010000 -0.821269
v 1.982719 0.010000 -0.821269
v 2.104843 -0.010000 -0.418679
v 2.104843 0.010000 -0.418679
v 2.146080 -0.010000 -0.000000
v 2.146080 0.010000 -0.000000
v 2.104844 -0.010000 0.418679
v 2.104844 0.010000 0.418679
v 1.982719 -0.010000 0.821269
v 1.982719 0.010000 0.821269
v 1.784400 -0.010000 1.192298
v 1.784400 0.010000 1.192298
v 1.517508 -0.010000 1.517508
v 1.517508 0.010000 1.517508
v 1.192298 -0.010000 1.784400
v 1.192298 0.010000 1.784400
v 0.821269 -0.010000 1.982719
v 0.821269 0.010000 1.982719
v 0.418679 -0.010000 2.104844
v 0.418679 0.010000 2.104844
v -0.000001 -0.010000 2.146080
v -0.000001 0.010000 2.146080
v -0.418680 -0.010000 2.104843
v -0.418680 0.010000 2.104843
v -0.821270 -0.010000 1.982719
v -0.821270 0.010000 1.982719
v -1.192299 -0.010000 1.784399
v -1.192299 0.010000 1.784399
v -1.517509 -0.010000 1.517507
v -1.517509 0.010000 1.517507
v -1.784401 -0.010000 1.192297
v -1.784401 0.010000 1.192297
v -1.982720 -0.010000 0.821268
v -1.982720 0.010000 0.821268
v -2.104844 -0.010000 0.418678
v -2.104844 0.010000 0.418678
v -2.146080 -0.010000 -0.000002
v -2.146080 0.010000 -0.000002
v -2.104843 -0.010000 -0.418682
v -2.104843 0.010000 -0.418682
v -1.982718 -0.010000 -0.821271
v -1.982718 0.010000 -0.821271
v -1.784399 -0.010000 -1.192300
v -1.784399 0.010000 -1.192300
v -1.517506 -0.010000 -1.517509
v -1.517506 0.010000 -1.517509
v -1.192296 -0.010000 -1.784402
v -1.192296 0.010000 -1.784402
v -0.821266 -0.010000 -1.982720
v -0.821266 0.010000 -1.982720
v -0.418676 -0.010000 -2.104844
v -0.418676 0.010000 -2.104844
v -1.594422 0.010000 0.019134
v -1.588406 -0.010000 0.019134
v -1.566832 0.010000 0.399249
v -1.560105 -0.010000 0.399796
v -0.360347 0.010000 -0.991485
v -0.358925 -0.010000 -0.991102
v 0.430541 0.010000 -0.995668
v 0.428463 -0.010000 -0.995231
v -1.392981 0.010000 0.612860
v -1.385215 -0.010000 0.614774
v -0.387310 0.010000 1.044826
v -0.385669 -0.010000 1.044333
v 1.634702 0.010000 0.458230
v 1.627264 -0.010000 0.458230
v 1.484847 0.010000 -0.655568
v 1.476151 -0.010000 -0.656608
v 1.664101 0.010000 -0.441958
v 1.656390 -0.010000 -0.441629
v 1.713307 0.010000 0.024619
v 1.706088 -0.010000 0.024619
v -1.383289 0.010000 -0.637373
v -1.375577 -0.010000 -0.638631
v -1.559048 0.010000 -0.371246
v -1.552375 -0.010000 -0.371683
v 0.430597 0.010000 1.040642
v 0.428464 -0.010000 1.040205
v 1.496770 0.010000 0.627087
v 1.487910 -0.010000 0.628892
vt 1.000000 0.500000
vt 1.000000 1.000000
vt 0.968750 1.000000
vt 0.968750 0.500000
vt 0.937500 1.000000
vt 0.937500 0.500000
vt 0.906250 1.000000
vt 0.906250 0.500000
vt 0.875000 1.000000
vt 0.875000 0.500000
vt 0.843750 1.000000
vt 0.843750 0.500000
vt 0.812500 1.000000
vt 0.812500 0.500000
vt 0.781250 1.000000
vt 0.781250 0.500000
vt 0.750000 1.000000
vt 0.750000 0.500000
vt 0.718750 1.000000
vt 0.718750 0.500000
vt 0.687500 1.000000
vt 0.687500 0.500000
vt 0.656250 1.000000
vt 0.656250 0.500000
vt 0.625000 1.000000
vt 0.625000 0.500000
vt 0.593750 1.000000
vt 0.593750 0.500000
vt 0.562500 1.000000
vt 0.562500 0.500000
vt 0.531250 1.000000
vt 0.531250 0.500000
vt 0.500000 1.000000
vt 0.500000 0.500000
vt 0.468750 1.000000
vt 0.468750 0.500000
vt 0.437500 1.000000
vt 0.437500 0.500000
vt 0.406250 1.000000
vt 0.406250 0.500000
vt 0.375000 1.000000
vt 0.375000 0.500000
vt 0.343750 1.000000
vt 0.343750 0.500000
vt 0.312500 1.000000
vt 0.312500 0.500000
vt 0.281250 1.000000
vt 0.281250 0.500000
vt 0.250000 1.000000
vt 0.250000 0.500000
vt 0.218750 1.000000
vt 0.218750 0.500000
vt 0.187500 1.000000
vt 0.187500 0.500000
vt 0.156250 1.000000
vt 0.156250 0.500000
vt 0.125000 1.000000
vt 0.125000 0.500000
vt 0.093750 1.000000
vt 0.093750 0.500000
vt 0.062500 1.000000
vt 0.062500 0.500000
vt 0.296822 0.485388
vt 0.250000 0.490000
vt 0.203179 0.485389
vt 0.158156 0.471731
vt 0.116663 0.449553
vt 0.080295 0.419706
vt 0.050447 0.383337
vt 0.028269 0.341844
vt 0.014612 0.296822
vt 0.010000 0.250000
vt 0.071693 0.247860
vt 0.075649 0.291517
vt 0.095304 0.321278
vt 0.209702 0.360879
vt 0.298148 0.361348
vt 0.416053 0.323314
vt 0.436100 0.299425
vt 0.441602 0.247247
vt 0.490000 0.250000
vt 0.485388 0.296822
vt 0.471731 0.341844
vt 0.449553 0.383337
vt 0.419706 0.419706
vt 0.383337 0.449553
vt 0.341844 0.471731
vt 0.031250 1.000000
vt 0.031250 0.500000
vt 0.000000 1.000000
vt 0.000000 0.500000
vt 0.750000 0.490000
vt 0.796822 0.485388
vt 0.841844 0.471731
vt 0.883337 0.449553
vt 0.919706 0.419706
vt 0.949553 0.383337
vt 0.971731 0.341844
vt 0.985388 0.296822
vt 0.990000 0.250000
vt 0.940795 0.247247
vt 0.935237 0.299388
vt 0.915081 0.323430
vt 0.797916 0.361298
vt 0.709861 0.360837
vt 0.596167 0.321419
vt 0.576395 0.291566
vt 0.572366 0.247860
vt 0.510000 0.250000
vt 0.514612 0.296822
vt 0.528269 0.341844
vt 0.550447 0.383337
vt 0.580295 0.419706
vt 0.616663 0.449553
vt 0.658156 0.471731
vt 0.703179 0.485389
vt 0.500000 0.989032
vt 0.500000 0.994032
vt 0.571428 0.994032
vt 0.571428 0.989032
vt 0.785714 0.989032
vt 0.785714 0.994032
vt 0.857143 0.994032
vt 0.857143 0.989032
vt 0.642857 0.994032
vt 0.642857 0.989032
vt 0.428571 0.989032
vt 0.428571 0.994032
vt 0.714286 0.989032
vt 0.714286 0.994032
vt 0.357143 0.989032
vt 0.357143 0.994032
vt 0.214286 0.989032
vt 0.214286 0.994032
vt 0.285714 0.994032
vt 0.285714 0.989032
vt 0.142857 0.989032
vt 0.142857 0.994032
vt -0.000000 0.989032
vt -0.000000 0.994032
vt 0.071428 0.994032
vt 0.071428 0.989032
vt 0.928571 0.989032
vt 0.928571 0.994032
vt 1.000000 0.994032
vt 1.000000 0.989032
vt 0.432812 0.198755
vt 0.417386 0.179872
vt 0.298154 0.133623
vt 0.206686 0.133155
vt 0.094220 0.181463
vt 0.074778 0.205351
vt 0.014611 0.203179
vt 0.028269 0.158156
vt 0.050447 0.116663
vt 0.080294 0.080294
vt 0.116663 0.050447
vt 0.158156 0.028269
vt 0.203178 0.014612
vt 0.250000 0.010000
vt 0.296822 0.014612
vt 0.341844 0.028269
vt 0.383337 0.050447
vt 0.419706 0.080294
vt 0.449553 0.116663
vt 0.471731 0.158156
vt 0.485388 0.203178
vt 0.575531 0.205290
vt 0.595089 0.181249
vt 0.706870 0.133210
vt 0.797916 0.133672
vt 0.916396 0.179670
vt 0.931980 0.198755
vt 0.985388 0.203178
vt 0.971731 0.158156
vt 0.949553 0.116663
vt 0.919706 0.080294
vt 0.883337 0.050447
vt 0.841844 0.028269
vt 0.796822 0.014612
vt 0.750000 0.010000
vt 0.703178 0.014612
vt 0.658156 0.028269
vt 0.616663 0.050447
vt 0.580294 0.080294
vt 0.550447 0.116663
vt 0.528269 0.158156
vt 0.514611 0.203179
vn 0.0980 0.0000 -0.9952
vn 0.2903 0.0000 -0.9569
vn 0.4714 0.0000 -0.8819
vn 0.6344 0.0000 -0.7730
vn 0.7730 0.0000 -0.6344
vn 0.8819 0.0000 -0.4714
vn 0.9569 0.0000 -0.2903
vn 0.9952 0.0000 -0.0980
vn 0.9952 0.0000 0.0980
vn 0.9569 0.0000 0.2903
vn 0.8819 0.0000 0.4714
vn 0.7730 0.0000 0.6344
vn 0.6344 0.0000 0.7730
vn 0.4714 0.0000 0.8819
vn 0.2903 0.0000 0.9569
vn 0.0980 0.0000 0.9952
vn -0.0980 0.0000 0.9952
vn -0.2903 0.0000 0.9569
vn -0.4714 0.0000 0.8819
vn -0.6344 0.0000 0.7730
vn -0.7730 0.0000 0.6344
vn -0.8819 0.0000 0.4714
vn -0.9569 0.0000 0.2903
vn -0.9952 0.0000 0.0980
vn -0.9952 0.0000 -0.0980
vn -0.9569 0.0000 -0.2903
vn -0.8819 0.0000 -0.4714
vn -0.7730 0.0000 -0.6344
vn -0.6344 0.0000 -0.7730
vn -0.4714 0.0000 -0.8819
vn -0.0000 1.0000 -0.0000
vn -0.2903 0.0000 -0.9569
vn -0.0980 0.0000 -0.9952
vn 0.0000 -1.0000 0.0000
vn -0.3610 0.0674 -0.9301
vn -0.7333 0.2899 0.6151
vn -0.7445 0.2759 -0.6080
vn -0.0051 0.0233 -0.9997
vn -0.9320 0.3487 0.0988
vn 0.3940 0.0601 -0.9171
vn 0.9508 0.3019 -0.0698
vn 0.7539 0.2354 -0.6134
vn 0.9499 0.3004 0.0868
vn 0.3269 0.0540 0.9435
vn 0.0053 0.0204 0.9998
vn 0.8039 0.2665 0.5317
vn -0.3066 0.0683 0.9494
vn -0.9256 0.3392 -0.1680
usemtl None
s off
f 1/1/1 2/2/1 4/3/1 3/4/1
f 3/4/2 4/3/2 6/5/2 5/6/2
f 5/6/3 6/5/3 8/7/3 7/8/3
f 7/8/4 8/7/4 10/9/4 9/10/4
f 9/10/5 10/9/5 12/11/5 11/12/5
f 11/12/6 12/11/6 14/13/6 13/14/6
f 13/14/7 14/13/7 16/15/7 15/16/7
f 15/16/8 16/15/8 18/17/8 17/18/8
f 17/18/9 18/17/9 20/19/9 19/20/9
f 19/20/10 20/19/10 22/21/10 21/22/10
f 21/22/11 22/21/11 24/23/11 23/24/11
f 23/24/12 24/23/12 26/25/12 25/26/12
f 25/26/13 26/25/13 28/27/13 27/28/13
f 27/28/14 28/27/14 30/29/14 29/30/14
f 29/30/15 30/29/15 32/31/15 31/32/15
f 31/32/16 32/31/16 34/33/16 33/34/16
f 33/34/17 34/33/17 36/35/17 35/36/17
f 35/36/18 36/35/18 38/37/18 37/38/18
f 37/38/19 38/37/19 40/39/19 39/40/19
f 39/40/20 40/39/20 42/41/20 41/42/20
f 41/42/21 42/41/21 44/43/21 43/44/21
f 43/44/22 44/43/22 46/45/22 45/46/22
f 45/46/23 46/45/23 48/47/23 47/48/23
f 47/48/24 48/47/24 50/49/24 49/50/24
f 49/50/25 50/49/25 52/51/25 51/52/25
f 51/52/26 52/51/26 54/53/26 53/54/26
f 53/54/27 54/53/27 56/55/27 55/56/27
f 55/56/28 56/55/28 58/57/28 57/58/28
f 57/58/29 58/57/29 60/59/29 59/60/29
f 59/60/30 60/59/30 62/61/30 61/62/30
f 4/63/31 2/64/31 64/65/31 62/66/31 60/67/31 58/68/31 56/69/31 54/70/31 52/71/31 50/72/31 65/73/31 87/74/31 85/75/31 69/76/31 71/77/31 79/78/31 81/79/31 83/80/31 18/81/31 16/82/31 14/83/31 12/84/31 10/85/31 8/86/31 6/87/31
f 61/62/32 62/61/32 64/88/32 63/89/32
f 63/89/33 64/88/33 2/90/33 1/91/33
f 1/92/34 3/93/34 5/94/34 7/95/34 9/96/34 11/97/34 13/98/34 15/99/34 17/100/34 84/101/34 82/102/34 80/103/34 72/104/34 70/105/34 86/106/34 88/107/34 66/108/34 49/109/34 51/110/34 53/111/34 55/112/34 57/113/34 59/114/34 61/115/34 63/116/34
f 90/117/35 89/118/35 91/119/35 92/120/35
f 82/121/36 81/122/36 79/123/36 80/124/36
f 92/120/37 91/119/37 77/125/37 78/126/37
f 76/127/38 75/128/38 89/118/38 90/117/38
f 84/129/39 83/130/39 81/122/39 82/121/39
f 74/131/40 73/132/40 75/128/40 76/127/40
f 66/133/41 65/134/41 67/135/41 68/136/41
f 68/136/42 67/135/42 73/132/42 74/131/42
f 88/137/43 87/138/43 65/134/43 66/133/43
f 70/139/44 69/140/44 85/141/44 86/142/44
f 72/143/45 71/144/45 69/145/45 70/146/45
f 18/81/31 83/80/31 77/147/31 91/148/31 89/149/31 75/150/31 73/151/31 67/152/31 65/73/31 50/72/31 48/153/31 46/154/31 44/155/31 42/156/31 40/157/31 38/158/31 36/159/31 34/160/31 32/161/31 30/162/31 28/163/31 26/164/31 24/165/31 22/166/31 20/167/31
f 49/109/34 66/108/34 68/168/34 74/169/34 76/170/34 90/171/34 92/172/34 78/173/34 84/101/34 17/100/34 19/174/34 21/175/34 23/176/34 25/177/34 27/178/34 29/179/34 31/180/34 33/181/34 35/182/34 37/183/34 39/184/34 41/185/34 43/186/34 45/187/34 47/188/34
f 86/142/46 85/141/46 87/138/46 88/137/46
f 80/124/47 79/123/47 71/144/47 72/143/47
f 78/126/48 77/125/48 83/130/48 84/129/48
