# Blender v2.83.13 OBJ File: 'stdiumwall.blend'
# www.blender.org
mtllib stdiumwall.mtl
o Cylinder
v 0.000000 -1.000000 -10.000000
v 0.000000 1.000000 -10.000000
v 1.950903 -1.000000 -9.807853
v 1.950903 1.000000 -9.807853
v 3.826835 -1.000000 -9.238795
v 3.826835 1.000000 -9.238795
v 5.555702 -1.000000 -8.314696
v 5.555702 1.000000 -8.314696
v 7.071068 -1.000000 -7.071068
v 7.071068 1.000000 -7.071068
v 8.314696 -1.000000 -5.555702
v 8.314696 1.000000 -5.555702
v 9.238795 -1.000000 -3.826834
v 9.238795 1.000000 -3.826834
v 9.807853 -1.000000 -1.950904
v 9.807853 1.000000 -1.950904
v 10.000000 -1.000000 -0.000001
v 10.000000 1.000000 -0.000001
v 9.807853 -1.000000 1.950902
v 9.807853 1.000000 1.950902
v 9.238795 -1.000000 3.826833
v 9.238795 1.000000 3.826833
v 8.314696 -1.000000 5.555702
v 8.314696 1.000000 5.555702
v 7.071068 -1.000000 7.071068
v 7.071068 1.000000 7.071068
v 5.555702 -1.000000 8.314696
v 5.555702 1.000000 8.314696
v 3.826833 -1.000000 9.238796
v 3.826833 1.000000 9.238796
v 1.950901 -1.000000 9.807853
v 1.950901 1.000000 9.807853
v -0.000003 -1.000000 10.000000
v -0.000003 1.000000 10.000000
v -1.950907 -1.000000 9.807852
v -1.950907 1.000000 9.807852
v -3.826839 -1.000000 9.238793
v -3.826839 1.000000 9.238793
v -5.555707 -1.000000 8.314693
v -5.555707 1.000000 8.314693
v -7.071073 -1.000000 7.071064
v -7.071073 1.000000 7.071064
v -8.314700 -1.000000 5.555696
v -8.314700 1.000000 5.555696
v -9.238798 -1.000000 3.826827
v -9.238798 1.000000 3.826827
v -9.807855 -1.000000 1.950895
v -9.807855 1.000000 1.950895
v -10.000000 -1.000000 -0.000010
v -10.000000 1.000000 -0.000010
v -9.807851 -1.000000 -1.950914
v -9.807851 1.000000 -1.950914
v -9.238791 -1.000000 -3.826845
v -9.238791 1.000000 -3.826845
v -8.314690 -1.000000 -5.555713
v -8.314690 1.000000 -5.555713
v -7.071059 -1.000000 -7.071076
v -7.071059 1.000000 -7.071076
v -5.555691 -1.000000 -8.314704
v -5.555691 1.000000 -8.314704
v -3.826821 -1.000000 -9.238801
v -3.826821 1.000000 -9.238801
v -1.950888 -1.000000 -9.807856
v -1.950888 1.000000 -9.807856
v -9.054014 1.000000 -3.750308
v -9.054014 -1.000000 -3.750308
v -8.148396 0.999999 -5.444598
v -8.148396 -1.000000 -5.444598
v 3.750298 1.000000 -9.054019
v 3.750298 -1.000000 -9.054019
v 1.911885 1.000000 -9.611694
v 1.911885 -1.000000 -9.611694
v -9.611693 1.000000 -1.911895
v -9.611693 -1.000000 -1.911895
v 6.929646 1.000000 -6.929646
v 6.929646 -1.000000 -6.929646
v 5.444588 1.000000 8.148402
v 5.444588 -1.000000 8.148402
v 3.750296 1.000000 9.054020
v 3.750296 -1.000000 9.054020
v 8.148402 1.000000 -5.444588
v 8.148402 -1.000000 -5.444588
v 1.911883 1.000000 9.611695
v 1.911883 -1.000000 9.611695
v -3.750302 1.000000 9.054017
v -3.750302 -1.000000 9.054017
v -9.799999 1.000000 -0.000009
v -9.799999 -1.000000 -0.000009
v -3.750284 1.000000 -9.054025
v -3.750284 -1.000000 -9.054025
v -5.444593 0.999999 8.148399
v -5.444593 -1.000000 8.148399
v 9.611695 1.000000 1.911884
v 9.611695 -1.000000 1.911884
v 6.929646 1.000000 6.929646
v 6.929646 -1.000000 6.929646
v 9.054020 1.000000 3.750296
v 9.054020 -1.000000 3.750296
v 9.799999 1.000000 -0.000001
v 9.799999 -1.000000 -0.000001
v -6.929637 0.999999 -6.929655
v -6.929637 -1.000000 -6.929655
v -5.444577 1.000000 -8.148409
v -5.444577 -1.000000 -8.148409
v -0.000003 1.000000 9.799999
v -0.000003 -1.000000 9.799999
v 0.000000 1.000000 -9.799999
v 0.000000 -1.000000 -9.799999
v 9.611694 1.000000 -1.911885
v 9.611694 -1.000000 -1.911885
v 5.444588 1.000000 -8.148402
v 5.444588 -1.000000 -8.148402
v 9.054019 1.000000 -3.750298
v 9.054019 -1.000000 -3.750298
v -9.054023 1.000000 3.750290
v -9.054023 -1.000000 3.750290
v -8.148405 1.000000 5.444582
v -8.148405 -1.000000 5.444582
v -9.611696 1.000000 1.911877
v -9.611696 -1.000000 1.911877
v -6.929651 0.999999 6.929642
v -6.929651 -1.000000 6.929642
v -1.911889 1.000000 9.611694
v -1.911889 -1.000000 9.611694
v 8.148402 1.000000 5.444588
v 8.148402 -1.000000 5.444588
v -1.911870 1.000000 -9.611698
v -1.911870 -1.000000 -9.611698
vt 1.000000 0.500000
vt 1.000000 1.000000
vt 0.968750 1.000000
vt 0.968750 0.500000
vt 0.937500 1.000000
vt 0.937500 0.500000
vt 0.906250 1.000000
vt 0.906250 0.500000
vt 0.875000 1.000000
vt 0.875000 0.500000
vt 0.843750 1.000000
vt 0.843750 0.500000
vt 0.812500 1.000000
vt 0.812500 0.500000
vt 0.781250 1.000000
vt 0.781250 0.500000
vt 0.750000 1.000000
vt 0.750000 0.500000
vt 0.718750 1.000000
vt 0.718750 0.500000
vt 0.687500 1.000000
vt 0.687500 0.500000
vt 0.656250 1.000000
vt 0.656250 0.500000
vt 0.625000 1.000000
vt 0.625000 0.500000
vt 0.593750 1.000000
vt 0.593750 0.500000
vt 0.562500 1.000000
vt 0.562500 0.500000
vt 0.531250 1.000000
vt 0.531250 0.500000
vt 0.500000 1.000000
vt 0.500000 0.500000
vt 0.468750 1.000000
vt 0.468750 0.500000
vt 0.437500 1.000000
vt 0.437500 0.500000
vt 0.406250 1.000000
vt 0.406250 0.500000
vt 0.375000 1.000000
vt 0.375000 0.500000
vt 0.343750 1.000000
vt 0.343750 0.500000
vt 0.312500 1.000000
vt 0.312500 0.500000
vt 0.281250 1.000000
vt 0.281250 0.500000
vt 0.250000 1.000000
vt 0.250000 0.500000
vt 0.218750 1.000000
vt 0.218750 0.500000
vt 0.187500 1.000000
vt 0.187500 0.500000
vt 0.156250 1.000000
vt 0.156250 0.500000
vt 0.125000 1.000000
vt 0.125000 0.500000
vt 0.093750 1.000000
vt 0.093750 0.500000
vt 0.062500 1.000000
vt 0.062500 0.500000
vt 0.296822 0.485388
vt 0.250000 0.490000
vt 0.203179 0.485389
vt 0.158156 0.471731
vt 0.116663 0.449553
vt 0.080295 0.419706
vt 0.050447 0.383337
vt 0.028269 0.341844
vt 0.014612 0.296822
vt 0.010000 0.250000
vt 0.014800 0.250000
vt 0.019319 0.295886
vt 0.032704 0.340007
vt 0.054439 0.380670
vt 0.083689 0.416312
vt 0.119330 0.445562
vt 0.159993 0.467297
vt 0.204115 0.480681
vt 0.250000 0.485200
vt 0.295885 0.480681
vt 0.340007 0.467296
vt 0.380670 0.445562
vt 0.416312 0.416312
vt 0.445562 0.380670
vt 0.467296 0.340007
vt 0.480681 0.295885
vt 0.485200 0.250000
vt 0.490000 0.250000
vt 0.485388 0.296822
vt 0.471731 0.341844
vt 0.449553 0.383337
vt 0.419706 0.419706
vt 0.383337 0.449553
vt 0.341844 0.471731
vt 0.031250 1.000000
vt 0.031250 0.500000
vt 0.000000 1.000000
vt 0.000000 0.500000
vt 0.750000 0.490000
vt 0.796822 0.485388
vt 0.841844 0.471731
vt 0.883337 0.449553
vt 0.919706 0.419706
vt 0.949553 0.383337
vt 0.971731 0.341844
vt 0.985388 0.296822
vt 0.990000 0.250000
vt 0.985200 0.250000
vt 0.980681 0.295885
vt 0.967296 0.340007
vt 0.945562 0.380670
vt 0.916311 0.416311
vt 0.880670 0.445562
vt 0.840007 0.467296
vt 0.795885 0.480681
vt 0.750000 0.485200
vt 0.704115 0.480681
vt 0.659993 0.467297
vt 0.619330 0.445562
vt 0.583689 0.416312
vt 0.554438 0.380670
vt 0.532704 0.340007
vt 0.519319 0.295886
vt 0.514800 0.250000
vt 0.510000 0.250000
vt 0.514612 0.296822
vt 0.528269 0.341844
vt 0.550447 0.383337
vt 0.580295 0.419706
vt 0.616663 0.449553
vt 0.658156 0.471731
vt 0.703179 0.485389
vt 0.718750 0.522727
vt 0.718750 0.977273
vt 0.750000 0.977273
vt 0.750000 0.522727
vt 0.625000 0.522727
vt 0.625000 0.977273
vt 0.656250 0.977273
vt 0.656250 0.522727
vt 0.687500 0.977273
vt 0.687500 0.522727
vt 0.218750 0.522727
vt 0.218750 0.977273
vt 0.250000 0.977273
vt 0.250000 0.522727
vt 0.781250 0.522727
vt 0.781250 0.977273
vt 0.812500 0.977273
vt 0.812500 0.522727
vt 0.843750 0.522727
vt 0.843750 0.977273
vt 0.875000 0.977273
vt 0.875000 0.522727
vt 0.000000 0.522727
vt 0.000000 0.977273
vt 0.031250 0.977273
vt 0.031250 0.522727
vt 0.468750 0.522727
vt 0.468750 0.977273
vt 0.500000 0.977273
vt 0.500000 0.522727
vt 0.156250 0.522727
vt 0.156250 0.977273
vt 0.187500 0.977273
vt 0.187500 0.522727
vt 0.531250 0.977273
vt 0.531250 0.522727
vt 0.062500 0.977273
vt 0.062500 0.522727
vt 0.906250 0.977273
vt 0.906250 0.522727
vt 0.406250 0.522727
vt 0.406250 0.977273
vt 0.437500 0.977273
vt 0.437500 0.522727
vt 0.480681 0.204115
vt 0.467296 0.159993
vt 0.445562 0.119330
vt 0.416312 0.083689
vt 0.380670 0.054438
vt 0.340007 0.032704
vt 0.295885 0.019319
vt 0.250000 0.014800
vt 0.204115 0.019319
vt 0.159993 0.032704
vt 0.119330 0.054438
vt 0.083688 0.083689
vt 0.054438 0.119330
vt 0.032703 0.159993
vt 0.019319 0.204115
vt 0.014611 0.203179
vt 0.028269 0.158156
vt 0.050447 0.116663
vt 0.080294 0.080294
vt 0.116663 0.050447
vt 0.158156 0.028269
vt 0.203178 0.014612
vt 0.250000 0.010000
vt 0.296822 0.014612
vt 0.341844 0.028269
vt 0.383337 0.050447
vt 0.419706 0.080294
vt 0.449553 0.116663
vt 0.471731 0.158156
vt 0.485388 0.203178
vt 0.937500 0.977273
vt 0.937500 0.522727
vt 0.593750 0.522727
vt 0.593750 0.977273
vt 0.093750 0.522727
vt 0.093750 0.977273
vt 0.125000 0.977273
vt 0.125000 0.522727
vt 0.562500 0.522727
vt 0.562500 0.977273
vt 0.375000 0.522727
vt 0.375000 0.977273
vt 0.312500 0.522727
vt 0.312500 0.977273
vt 0.343750 0.977273
vt 0.343750 0.522727
vt 0.968750 0.522727
vt 0.968750 0.977273
vt 1.000000 0.977273
vt 1.000000 0.522727
vt 0.281250 0.977273
vt 0.281250 0.522727
vt 0.519319 0.204115
vt 0.532704 0.159993
vt 0.554438 0.119330
vt 0.583688 0.083689
vt 0.619330 0.054438
vt 0.659993 0.032704
vt 0.704115 0.019319
vt 0.750000 0.014800
vt 0.795885 0.019319
vt 0.840007 0.032704
vt 0.880670 0.054438
vt 0.916311 0.083688
vt 0.945562 0.119330
vt 0.967296 0.159993
vt 0.980681 0.204115
vt 0.985388 0.203178
vt 0.971731 0.158156
vt 0.949553 0.116663
vt 0.919706 0.080294
vt 0.883337 0.050447
vt 0.841844 0.028269
vt 0.796822 0.014612
vt 0.750000 0.010000
vt 0.703178 0.014612
vt 0.658156 0.028269
vt 0.616663 0.050447
vt 0.580294 0.080294
vt 0.550447 0.116663
vt 0.528269 0.158156
vt 0.514611 0.203179
vn 0.0980 0.0000 -0.9952
vn 0.2903 0.0000 -0.9569
vn 0.4714 0.0000 -0.8819
vn 0.6344 0.0000 -0.7730
vn 0.7730 0.0000 -0.6344
vn 0.8819 0.0000 -0.4714
vn 0.9569 0.0000 -0.2903
vn 0.9952 0.0000 -0.0980
vn 0.9952 0.0000 0.0980
vn 0.9569 0.0000 0.2903
vn 0.8819 0.0000 0.4714
vn 0.7730 0.0000 0.6344
vn 0.6344 0.0000 0.7730
vn 0.4714 0.0000 0.8819
vn 0.2903 0.0000 0.9569
vn 0.0980 0.0000 0.9952
vn -0.0980 0.0000 0.9952
vn -0.2903 0.0000 0.9569
vn -0.4714 0.0000 0.8819
vn -0.6344 0.0000 0.7730
vn -0.7730 0.0000 0.6344
vn -0.8819 0.0000 0.4714
vn -0.9569 0.0000 0.2903
vn -0.9952 0.0000 0.0980
vn -0.9952 0.0000 -0.0980
vn -0.9569 0.0000 -0.2903
vn -0.8819 0.0000 -0.4714
vn -0.7730 0.0000 -0.6344
vn -0.6344 0.0000 -0.7730
vn -0.4714 0.0000 -0.8819
vn 0.0000 1.0000 0.0000
vn -0.2903 0.0000 -0.9569
vn -0.0980 0.0000 -0.9952
vn 0.0000 -1.0000 0.0000
usemtl None
s off
f 1/1/1 2/2/1 4/3/1 3/4/1
f 3/4/2 4/3/2 6/5/2 5/6/2
f 5/6/3 6/5/3 8/7/3 7/8/3
f 7/8/4 8/7/4 10/9/4 9/10/4
f 9/10/5 10/9/5 12/11/5 11/12/5
f 11/12/6 12/11/6 14/13/6 13/14/6
f 13/14/7 14/13/7 16/15/7 15/16/7
f 15/16/8 16/15/8 18/17/8 17/18/8
f 17/18/9 18/17/9 20/19/9 19/20/9
f 19/20/10 20/19/10 22/21/10 21/22/10
f 21/22/11 22/21/11 24/23/11 23/24/11
f 23/24/12 24/23/12 26/25/12 25/26/12
f 25/26/13 26/25/13 28/27/13 27/28/13
f 27/28/14 28/27/14 30/29/14 29/30/14
f 29/30/15 30/29/15 32/31/15 31/32/15
f 31/32/16 32/31/16 34/33/16 33/34/16
f 33/34/17 34/33/17 36/35/17 35/36/17
f 35/36/18 36/35/18 38/37/18 37/38/18
f 37/38/19 38/37/19 40/39/19 39/40/19
f 39/40/20 40/39/20 42/41/20 41/42/20
f 41/42/21 42/41/21 44/43/21 43/44/21
f 43/44/22 44/43/22 46/45/22 45/46/22
f 45/46/23 46/45/23 48/47/23 47/48/23
f 47/48/24 48/47/24 50/49/24 49/50/24
f 49/50/25 50/49/25 52/51/25 51/52/25
f 51/52/26 52/51/26 54/53/26 53/54/26
f 53/54/27 54/53/27 56/55/27 55/56/27
f 55/56/28 56/55/28 58/57/28 57/58/28
f 57/58/29 58/57/29 60/59/29 59/60/29
f 59/60/30 60/59/30 62/61/30 61/62/30
f 4/63/31 2/64/31 64/65/31 62/66/31 60/67/31 58/68/31 56/69/31 54/70/31 52/71/31 50/72/31 87/73/31 73/74/31 65/75/31 67/76/31 101/77/31 103/78/31 89/79/31 127/80/31 107/81/31 71/82/31 69/83/31 111/84/31 75/85/31 81/86/31 113/87/31 109/88/31 99/89/31 18/90/31 16/91/31 14/92/31 12/93/31 10/94/31 8/95/31 6/96/31
f 61/62/32 62/61/32 64/97/32 63/98/32
f 63/98/33 64/97/33 2/99/33 1/100/33
f 1/101/34 3/102/34 5/103/34 7/104/34 9/105/34 11/106/34 13/107/34 15/108/34 17/109/34 100/110/34 110/111/34 114/112/34 82/113/34 76/114/34 112/115/34 70/116/34 72/117/34 108/118/34 128/119/34 90/120/34 104/121/34 102/122/34 68/123/34 66/124/34 74/125/34 88/126/34 49/127/34 51/128/34 53/129/34 55/130/34 57/131/34 59/132/34 61/133/34 63/134/34
f 94/135/25 93/136/25 99/137/25 100/138/25
f 96/139/28 95/140/28 125/141/28 126/142/28
f 126/142/27 125/141/27 97/143/27 98/144/27
f 74/145/9 73/146/9 87/147/9 88/148/9
f 110/149/23 109/150/23 113/151/23 114/152/23
f 100/138/24 99/137/24 109/150/24 110/149/24
f 82/153/21 81/154/21 75/155/21 76/156/21
f 108/157/16 107/158/16 127/159/16 128/160/16
f 124/161/1 123/162/1 105/163/1 106/164/1
f 68/165/11 67/166/11 65/167/11 66/168/11
f 106/164/33 105/163/33 83/169/33 84/170/33
f 128/160/15 127/159/15 89/171/15 90/172/15
f 76/156/20 75/155/20 111/173/20 112/174/20
f 92/175/3 91/176/3 85/177/3 86/178/3
f 18/90/31 99/89/31 93/179/31 97/180/31 125/181/31 95/182/31 77/183/31 79/184/31 83/185/31 105/186/31 123/187/31 85/188/31 91/189/31 121/190/31 117/191/31 115/192/31 119/193/31 87/73/31 50/72/31 48/194/31 46/195/31 44/196/31 42/197/31 40/198/31 38/199/31 36/200/31 34/201/31 32/202/31 30/203/31 28/204/31 26/205/31 24/206/31 22/207/31 20/208/31
f 112/174/19 111/173/19 69/209/19 70/210/19
f 78/211/29 77/212/29 95/140/29 96/139/29
f 104/213/13 103/214/13 101/215/13 102/216/13
f 66/168/10 65/167/10 73/146/10 74/145/10
f 80/217/30 79/218/30 77/212/30 78/211/30
f 122/219/4 121/220/4 91/176/4 92/175/4
f 116/221/6 115/222/6 117/223/6 118/224/6
f 72/225/17 71/226/17 107/227/17 108/228/17
f 114/152/22 113/151/22 81/154/22 82/153/22
f 88/148/8 87/147/8 119/229/8 120/230/8
f 98/144/26 97/143/26 93/136/26 94/135/26
f 86/178/2 85/177/2 123/162/2 124/161/2
f 90/172/14 89/171/14 103/214/14 104/213/14
f 70/210/18 69/209/18 71/226/18 72/225/18
f 84/170/32 83/169/32 79/218/32 80/217/32
f 120/230/7 119/229/7 115/222/7 116/221/7
f 102/216/12 101/215/12 67/166/12 68/165/12
f 118/224/5 117/223/5 121/220/5 122/219/5
f 49/127/34 88/126/34 120/231/34 116/232/34 118/233/34 122/234/34 92/235/34 86/236/34 124/237/34 106/238/34 84/239/34 80/240/34 78/241/34 96/242/34 126/243/34 98/244/34 94/245/34 100/110/34 17/109/34 19/246/34 21/247/34 23/248/34 25/249/34 27/250/34 29/251/34 31/252/34 33/253/34 35/254/34 37/255/34 39/256/34 41/257/34 43/258/34 45/259/34 47/260/34
